<?xml version="1.0" standalone="no"?>
<!DOCTYPE svg PUBLIC "-//W3C//DTD SVG 20010904//EN"
 "http://www.w3.org/TR/2001/REC-SVG-20010904/DTD/svg10.dtd">
<svg version="1.0" xmlns="http://www.w3.org/2000/svg"
 width="994.000000pt" height="994.000000pt" viewBox="0 0 994.000000 994.000000"
 preserveAspectRatio="xMidYMid meet">
<metadata>
Created by potrace 1.11, written by Peter Selinger 2001-2013
</metadata>
<g transform="translate(0.000000,994.000000) scale(0.100000,-0.100000)"
fill="#000000" stroke="none">
<path d="M4438 9928 c-7 -7 -29 -21 -48 -30 -19 -10 -62 -34 -95 -53 -33 -20
-67 -39 -75 -42 -8 -4 -17 -9 -20 -12 -3 -3 -19 -13 -35 -22 -17 -9 -113 -64
-214 -123 -101 -58 -187 -106 -192 -106 -5 0 -9 -4 -9 -9 0 -5 -12 -14 -27
-20 -29 -10 -104 -52 -113 -61 -3 -3 -52 -33 -110 -65 -58 -33 -113 -64 -122
-70 -9 -5 -41 -23 -70 -39 -29 -15 -60 -34 -69 -42 -8 -8 -18 -14 -22 -14 -3
0 -67 -36 -143 -80 -75 -44 -138 -80 -140 -80 -2 0 -44 -25 -95 -55 -50 -30
-95 -55 -100 -55 -4 0 -14 -6 -21 -12 -7 -7 -29 -22 -48 -32 -19 -10 -76 -43
-126 -72 -50 -30 -96 -54 -102 -54 -7 0 -12 -4 -12 -9 0 -5 -12 -14 -27 -21
-47 -19 -73 -34 -73 -42 0 -5 -4 -8 -9 -8 -8 0 -488 -272 -558 -316 -13 -8
-26 -14 -29 -13 -4 0 -10 -3 -13 -8 -3 -4 -19 -16 -36 -25 -16 -9 -79 -45
-140 -80 -60 -35 -130 -75 -155 -89 -86 -49 -695 -401 -772 -446 l-78 -45 0
-2559 0 -2559 25 -12 c14 -6 25 -15 25 -19 0 -4 11 -10 25 -13 14 -4 25 -11
25 -16 0 -6 5 -10 12 -10 6 0 59 -28 117 -62 58 -34 117 -68 131 -76 14 -7 39
-22 55 -32 17 -11 37 -23 45 -27 8 -4 78 -44 155 -88 77 -45 160 -93 185 -107
25 -14 83 -48 130 -75 216 -127 262 -153 271 -153 5 0 9 -4 9 -10 0 -5 4 -10
9 -10 4 0 86 -45 181 -100 95 -55 177 -100 181 -100 5 0 9 -4 9 -10 0 -5 4
-10 9 -10 9 0 158 -84 419 -237 78 -45 145 -83 148 -83 3 0 25 -13 49 -30 24
-16 46 -30 48 -30 3 0 38 -19 79 -43 40 -24 93 -55 118 -69 25 -14 85 -48 133
-77 49 -28 93 -51 98 -51 5 0 9 -4 9 -10 0 -5 4 -10 10 -10 5 0 33 -14 62 -31
62 -37 105 -62 168 -97 25 -14 57 -33 72 -43 14 -11 28 -19 31 -19 3 0 51 -27
107 -60 56 -33 104 -60 106 -60 3 0 30 -16 60 -35 30 -19 57 -35 59 -35 3 0
22 -11 43 -24 20 -13 118 -70 217 -126 99 -57 205 -118 235 -135 300 -175 370
-215 379 -215 6 0 11 -3 11 -7 0 -5 10 -13 23 -19 44 -22 122 -66 133 -75 15
-12 34 -4 120 48 39 24 76 43 82 43 6 0 12 3 14 8 4 9 147 92 159 92 5 0 9 4
9 9 0 5 10 13 23 17 12 4 54 26 94 50 39 24 76 44 82 44 6 0 11 3 11 8 0 4 28
22 63 40 34 18 69 37 77 42 35 23 342 200 346 200 3 0 21 11 42 23 20 13 57
35 82 49 25 14 96 55 159 92 62 36 118 66 122 66 5 0 9 4 9 8 0 5 16 14 35 22
19 8 35 17 35 22 0 4 4 8 9 8 4 0 58 29 119 64 146 85 196 113 262 149 30 17
62 35 70 42 8 7 46 29 84 49 37 21 97 55 132 77 36 21 67 39 69 39 3 0 22 11
43 23 20 13 114 68 207 122 374 215 492 283 525 301 19 10 37 22 38 27 2 4 7
7 12 7 12 0 154 83 158 92 2 4 12 8 23 8 10 0 19 3 19 8 0 4 21 18 48 32 26
13 49 27 52 31 3 3 20 12 38 20 17 8 32 17 32 21 0 5 4 8 9 8 6 0 132 70 259
145 41 25 82 45 88 44 4 0 10 3 13 8 6 9 46 34 114 72 21 12 98 56 170 98 73
42 169 97 214 122 l83 46 0 2560 0 2560 -22 15 c-13 8 -32 20 -43 26 -11 6
-76 43 -143 83 -68 39 -128 71 -133 71 -5 0 -9 4 -9 8 0 5 -16 14 -35 22 -19
8 -35 17 -35 21 0 4 -8 9 -17 12 -10 4 -38 18 -63 33 -25 15 -59 35 -77 45
-17 10 -50 29 -72 43 -22 15 -43 26 -46 26 -3 0 -46 25 -96 55 -50 30 -92 55
-94 55 -3 0 -27 14 -53 30 -27 17 -53 30 -59 30 -5 0 -9 -112 -8 -282 1 -159
-3 -288 -8 -295 -5 -7 -6 -13 -1 -13 13 0 12 -144 -1 -152 -6 -5 -6 -8 0 -8
12 0 14 -289 2 -307 -5 -7 -5 -13 0 -13 4 0 8 -34 8 -75 1 -46 -3 -75 -10 -75
-6 0 -7 -3 0 -8 14 -10 14 -1174 0 -1184 -7 -5 -7 -8 0 -8 12 0 13 -219 2
-237 -5 -7 -5 -13 0 -13 10 0 10 -131 0 -147 -5 -7 -5 -13 0 -13 12 0 10 -144
-2 -152 -6 -5 -6 -8 0 -8 12 0 14 -289 2 -307 -5 -7 -5 -13 0 -13 10 0 10
-451 0 -467 -5 -7 -5 -13 0 -13 12 0 10 -144 -2 -152 -6 -5 -6 -8 0 -8 12 0
14 -289 2 -307 -5 -7 -5 -13 0 -13 12 0 10 -144 -2 -152 -6 -5 -6 -8 0 -8 12
0 14 -618 2 -637 -5 -7 -4 -13 1 -13 21 0 -1 -36 -29 -49 -16 -7 -81 -44 -145
-82 -63 -38 -119 -69 -123 -69 -5 0 -14 -7 -21 -15 -7 -9 -15 -13 -18 -10 -3
3 -19 -5 -36 -18 -17 -12 -42 -28 -56 -35 -14 -7 -47 -26 -75 -42 -27 -17 -59
-35 -70 -40 -11 -6 -38 -22 -60 -35 -22 -14 -51 -31 -65 -37 -14 -7 -32 -17
-40 -24 -8 -6 -46 -29 -85 -49 -38 -21 -73 -43 -77 -49 -4 -6 -8 -7 -8 -2 0 5
-8 2 -17 -6 -10 -9 -40 -28 -68 -42 -27 -15 -57 -31 -65 -36 -49 -30 -147 -87
-160 -93 -8 -4 -29 -15 -45 -26 -31 -18 -455 -264 -532 -307 -23 -13 -90 -52
-150 -87 -59 -35 -115 -66 -123 -70 -8 -4 -37 -21 -65 -37 -27 -17 -65 -38
-82 -47 -18 -9 -33 -20 -33 -25 0 -4 -5 -8 -11 -8 -7 0 -42 -17 -78 -38 -36
-21 -126 -73 -198 -115 -73 -42 -137 -77 -143 -77 -5 0 -10 -4 -10 -10 0 -5
-5 -10 -10 -10 -6 0 -29 -12 -51 -26 -36 -22 -89 -53 -154 -89 -11 -6 -39 -23
-62 -38 -24 -15 -47 -27 -52 -27 -5 0 -14 -7 -21 -15 -7 -8 -16 -13 -20 -10
-5 3 -11 1 -15 -4 -3 -6 -40 -29 -83 -53 -42 -24 -86 -48 -97 -55 -11 -7 -29
-16 -40 -22 -11 -5 -37 -21 -58 -35 -61 -42 -74 -41 -162 10 -44 25 -96 55
-115 66 -76 44 -206 119 -220 128 -8 5 -44 26 -80 46 -36 21 -133 77 -217 125
-154 90 -192 112 -273 157 -25 14 -61 36 -80 49 -19 12 -40 23 -47 23 -7 0
-13 5 -13 10 0 6 -5 10 -10 10 -6 0 -79 40 -163 89 -84 49 -168 98 -187 109
-19 11 -138 79 -265 152 -126 74 -248 143 -270 154 -22 12 -42 24 -45 27 -3 3
-30 19 -60 36 -30 17 -122 70 -205 118 -82 48 -168 97 -190 110 -22 12 -96 54
-164 94 -68 39 -127 71 -132 71 -5 0 -9 5 -9 10 0 6 -5 10 -10 10 -6 0 -27 11
-48 23 -20 13 -58 35 -83 49 -81 45 -94 53 -99 58 -3 3 -16 11 -30 18 -14 6
-32 16 -40 21 -8 6 -49 29 -90 53 -41 23 -82 47 -92 53 -9 5 -36 20 -60 33
l-43 23 2 1972 c0 1085 2 1975 2 1979 1 4 31 24 69 45 37 20 68 41 70 45 2 4
7 8 12 8 4 0 64 32 132 71 67 39 143 83 168 97 25 14 57 33 72 43 14 11 33 19
41 19 9 0 17 4 19 9 2 4 66 44 144 89 77 44 156 90 175 101 19 12 41 24 49 28
8 4 65 36 125 72 61 36 111 63 111 60 1 -2 10 3 20 12 19 16 163 100 287 168
34 19 64 37 67 40 3 4 16 12 30 18 14 7 48 26 75 43 28 16 57 33 65 37 8 4 54
30 103 59 48 29 87 49 87 46 0 -4 4 -2 8 3 6 10 24 21 132 83 42 24 221 127
270 155 19 11 55 31 80 45 25 14 57 33 72 43 14 11 28 19 31 19 3 0 51 27 107
60 56 33 103 60 105 60 2 0 40 23 84 50 44 28 85 50 91 50 5 0 10 7 11 15 1
31 0 145 -1 153 -1 4 -1 12 0 17 2 12 2 206 0 220 -1 6 -1 15 0 20 2 12 2 206
0 220 -1 6 -1 15 0 20 2 12 2 206 0 220 -1 6 -1 15 0 20 5 24 2 223 -4 233 -3
6 -1 12 6 14 9 3 9 6 1 11 -6 4 -17 2 -25 -5z"/>
<path d="M5818 9738 c-2 -7 -3 -671 -3 -1475 1 -805 -2 -1463 -5 -1463 -3 0
-32 16 -64 35 -32 19 -62 35 -67 35 -5 0 -9 5 -9 10 0 6 -4 10 -9 10 -12 0
-245 133 -249 142 -2 5 -10 8 -17 8 -8 0 -20 6 -27 13 -7 6 -35 23 -61 37 -27
14 -56 30 -65 35 -34 20 -218 127 -244 141 -25 14 -30 13 -65 -9 -35 -22 -263
-154 -358 -207 -22 -12 -94 -54 -160 -93 -66 -39 -136 -79 -155 -90 -75 -40
-96 -53 -127 -75 -18 -13 -33 -21 -33 -18 0 3 -32 -15 -72 -40 -40 -24 -78
-44 -85 -44 -7 0 -13 -4 -13 -8 0 -5 -15 -16 -32 -25 -18 -9 -53 -28 -78 -43
-61 -36 -285 -165 -340 -196 -25 -14 -74 -43 -110 -64 -92 -55 -141 -83 -170
-97 -14 -6 -27 -14 -30 -18 -3 -3 -19 -13 -36 -22 l-31 -16 0 -1085 c0 -598 4
-1086 8 -1086 4 0 53 -27 109 -60 56 -33 104 -60 106 -60 3 0 30 -16 60 -35
30 -19 57 -35 60 -35 3 0 30 -16 60 -35 30 -19 56 -35 57 -35 5 0 469 -267
483 -277 10 -8 73 -43 129 -72 17 -9 32 -19 33 -23 2 -5 8 -8 13 -8 5 0 28
-11 50 -26 39 -24 76 -46 149 -86 19 -11 49 -28 65 -39 17 -10 37 -22 45 -26
39 -18 136 -78 142 -87 4 -6 8 -8 8 -3 0 4 17 -3 38 -16 20 -13 58 -35 83 -49
81 -45 94 -53 99 -58 3 -3 21 -14 40 -24 l36 -18 78 46 c43 25 79 46 81 46 2
0 60 34 130 75 69 41 128 75 131 75 2 0 21 11 42 23 20 13 57 35 82 49 25 14
95 54 156 90 61 36 117 68 125 71 8 4 28 16 45 26 40 24 406 236 464 269 96
54 357 205 392 228 21 13 44 24 52 24 8 0 16 4 18 8 2 4 19 18 39 30 l36 22 0
2559 0 2560 -31 16 c-31 16 -50 27 -96 56 -14 9 -51 30 -84 48 -32 17 -111 63
-176 101 -65 39 -123 70 -129 70 -6 0 -11 4 -11 9 0 5 -10 13 -22 17 -13 3
-30 12 -38 19 -8 7 -40 26 -70 42 -64 35 -290 166 -336 194 -24 14 -33 16 -36
7z m-810 -3666 c15 -10 70 -43 122 -72 52 -29 103 -60 113 -68 9 -8 17 -12 17
-7 0 4 6 3 13 -3 15 -12 217 -131 307 -180 36 -19 67 -38 70 -41 3 -3 30 -19
60 -35 30 -16 62 -35 71 -42 8 -8 20 -14 25 -14 7 0 10 -178 10 -487 l0 -488
-61 -37 c-33 -21 -65 -37 -72 -38 -6 0 -13 -4 -15 -8 -1 -5 -28 -22 -58 -39
-30 -17 -83 -47 -117 -67 -34 -20 -66 -36 -72 -36 -6 0 -11 -3 -11 -8 0 -4
-21 -18 -47 -32 -27 -13 -65 -35 -86 -48 -38 -23 -71 -42 -157 -90 -25 -14
-61 -35 -80 -47 -19 -12 -43 -24 -53 -28 -16 -6 -73 20 -137 63 -14 9 -72 43
-130 75 -58 33 -106 63 -108 67 -2 4 -9 8 -16 8 -6 0 -44 20 -84 45 -40 25
-74 45 -76 45 -2 0 -54 29 -115 65 -62 36 -116 65 -122 65 -5 0 -9 3 -9 8 0 4
-13 13 -28 20 l-28 12 0 485 c1 309 5 487 11 494 9 9 24 17 135 79 25 14 56
32 70 41 48 31 65 41 95 56 17 8 48 25 70 39 22 14 60 35 85 48 25 13 47 26
50 29 5 6 202 119 230 133 8 3 33 18 55 31 48 30 41 29 73 7z"/>
</g>
</svg>
